<svg xmlns="http://www.w3.org/2000/svg" width="139" height="118" viewBox="0 0 139 118">
<g>
<path d="M 130.00 112.57 L 130.00 108.00 L 117.99 108.00 C106.98,108.00 105.83,107.82 104.24,105.89 C100.64,101.52 99.76,101.00 95.99,101.00 C92.76,101.00 91.82,101.49 90.38,103.93 C88.23,107.58 86.76,107.97 75.18,107.99 C64.78,108.00 62.72,107.29 60.46,102.92 C58.72,99.56 59.10,97.41 62.11,93.58 C63.96,91.23 64.79,91.00 71.32,91.01 C75.27,91.01 80.88,91.30 83.80,91.65 C88.31,92.20 89.32,92.72 90.58,95.15 C91.86,97.63 92.62,98.00 96.49,98.00 C99.85,98.00 101.18,97.53 101.96,96.08 C104.49,91.34 105.57,91.00 118.07,91.00 C129.33,91.00 130.00,90.89 130.00,89.00 C130.00,87.05 129.33,87.00 104.95,87.00 L 79.91 87.00 L 78.20 84.01 C76.74,81.43 75.91,81.01 72.31,81.01 C68.70,81.00 67.86,81.42 66.34,84.00 C64.77,86.66 64.03,87.00 59.87,87.00 C55.53,87.00 54.99,86.71 52.91,83.35 C50.65,79.69 50.65,79.69 52.57,76.10 C54.35,72.79 54.90,72.48 59.51,72.21 C64.16,71.93 64.64,72.13 66.32,74.96 C67.88,77.61 68.67,78.00 72.49,78.00 C75.92,78.00 77.00,77.59 77.47,76.09 C78.86,71.72 79.95,71.56 105.69,71.88 L 130.16 72.18 L 129.83 69.84 L 129.50 67.50 L 110.79 67.23 L 92.09 66.96 L 90.33 63.98 C88.82,61.42 87.97,61.00 84.35,61.00 C80.81,61.00 79.80,61.48 78.00,64.00 L 75.86 67.00 L 53.51 67.00 L 31.16 67.00 L 28.98 63.47 C26.53,59.50 26.81,56.66 30.00,53.23 C32.03,51.05 32.61,51.00 53.96,51.00 L 75.84 51.00 L 78.00 54.50 C79.86,57.51 80.70,58.00 83.96,58.00 C87.13,58.00 88.21,57.42 90.43,54.50 L 93.10 51.00 L 111.55 51.00 C129.33,51.00 130.00,50.93 130.00,49.00 C130.00,47.30 129.33,47.00 125.57,47.00 C121.79,47.00 120.82,46.56 119.00,44.00 C117.18,41.45 116.21,41.00 112.49,41.00 C108.69,41.00 107.88,41.39 106.34,44.00 C104.78,46.64 104.02,47.00 100.03,46.99 C95.95,46.98 95.27,46.63 93.20,43.43 C90.71,39.58 90.88,37.69 94.11,33.58 C95.75,31.50 97.00,31.00 100.59,31.00 C104.68,31.00 105.16,31.28 106.70,34.50 C108.15,37.54 108.84,38.00 111.94,37.98 C116.13,37.97 117.03,37.42 118.92,33.75 C120.17,31.33 120.91,31.00 125.17,31.00 C129.33,31.00 130.00,30.72 130.00,29.00 C130.00,27.05 129.33,27.00 103.03,27.00 L 76.05 27.00 L 74.50 24.00 C73.13,21.36 72.43,21.00 68.54,21.00 C64.77,21.00 63.82,21.44 61.96,24.05 C60.00,26.81 59.34,27.07 55.15,26.80 C50.92,26.53 50.32,26.16 48.50,22.75 L 46.50 19.00 L 48.50 15.25 C50.32,11.84 50.92,11.47 55.15,11.20 C59.34,10.93 60.00,11.19 61.96,13.95 C63.82,16.55 64.78,17.00 68.51,17.00 C72.30,17.00 73.07,16.63 74.21,14.25 L 75.53 11.50 L 102.71 11.23 L 129.89 10.97 L 130.19 6.73 C130.44,3.27 130.86,2.50 132.50,2.50 C134.48,2.50 134.50,3.17 134.50,59.50 L 134.50 116.50 L 132.25 116.82 C130.20,117.11 130.00,116.74 130.00,112.57 ZM 35.23 105.25 C32.17,100.83 32.06,99.54 34.37,95.41 C37.03,90.65 41.11,89.73 45.23,92.96 C49.11,96.02 49.71,100.33 46.84,104.55 C44.89,107.42 43.89,107.99 40.82,107.99 C37.93,108.00 36.73,107.41 35.23,105.25 ZM 1.74 64.14 C-0.55,60.27 -0.46,57.45 2.07,53.90 C3.82,51.44 4.82,51.00 8.58,51.00 C12.84,51.00 13.11,51.18 15.16,55.40 C17.30,59.79 17.30,59.81 15.35,63.15 C13.60,66.15 12.88,66.53 8.44,66.79 C3.87,67.06 3.35,66.86 1.74,64.14 ZM 66.57 43.31 L 64.06 39.62 L 66.29 35.56 C68.28,31.95 68.99,31.47 72.65,31.20 C76.40,30.92 76.96,31.20 78.89,34.32 C81.55,38.63 81.54,40.35 78.81,44.04 C77.06,46.41 75.87,47.00 72.85,47.00 C69.62,47.00 68.71,46.47 66.57,43.31 Z" fill="#0066FF"/>
</g>
</svg>